<svg xmlns="http://www.w3.org/2000/svg" width="512" height="512" viewBox="0 0 512 512" role="img" aria-labelledby="title desc">
  <title id="title">my-task-manager App Icon</title>
  <desc id="desc">Friendly task planner icon with a clock, check mark, and sparkle accent.</desc>
  <defs>
    <linearGradient id="bgGradient" x1="0" y1="0" x2="1" y2="1">
      <stop offset="0%" stop-color="#7FC8FF" />
      <stop offset="100%" stop-color="#5C8BFF" />
    </linearGradient>
    <linearGradient id="clockFace" x1="0" y1="0" x2="0" y2="1">
      <stop offset="0%" stop-color="#FFFFFF" />
      <stop offset="100%" stop-color="#EEF3FF" />
    </linearGradient>
    <filter id="softShadow" x="-20%" y="-20%" width="140%" height="140%">
      <feDropShadow dx="0" dy="8" stdDeviation="8" flood-color="#1D3E87" flood-opacity="0.22" />
    </filter>
  </defs>

  <rect x="32" y="32" width="448" height="448" rx="112" fill="url(#bgGradient)" />

  <g filter="url(#softShadow)">
    <circle cx="256" cy="248" r="146" fill="url(#clockFace)" />
    <circle cx="256" cy="248" r="146" fill="none" stroke="#3558B8" stroke-width="18" />
  </g>

  <g stroke="#3558B8" stroke-linecap="round" stroke-width="14">
    <line x1="256" y1="116" x2="256" y2="136" />
    <line x1="256" y1="360" x2="256" y2="380" />
    <line x1="124" y1="248" x2="144" y2="248" />
    <line x1="368" y1="248" x2="388" y2="248" />
  </g>

  <g stroke="#3558B8" stroke-width="18" stroke-linecap="round">
    <line x1="256" y1="248" x2="256" y2="184" />
    <line x1="256" y1="248" x2="312" y2="282" />
  </g>
  <circle cx="256" cy="248" r="12" fill="#3558B8" />

  <g transform="translate(304 306)">
    <circle cx="62" cy="62" r="62" fill="#31C48D" stroke="#F7FFFC" stroke-width="10" />
    <path d="M34 64l18 18 38-40" fill="none" stroke="#FFFFFF" stroke-width="14" stroke-linecap="round" stroke-linejoin="round" />
  </g>

  <path d="M124 126l10 22 22 10-22 10-10 22-10-22-22-10 22-10z" fill="#FFFFFF" opacity="0.92" />
</svg>
